<?xml version="1.0" standalone="no"?>
<!DOCTYPE svg PUBLIC "-//W3C//DTD SVG 20010904//EN"
 "http://www.w3.org/TR/2001/REC-SVG-20010904/DTD/svg10.dtd">
<svg version="1.0" xmlns="http://www.w3.org/2000/svg"
 width="585.000000pt" height="585.000000pt" viewBox="0 0 585.000000 585.000000"
 preserveAspectRatio="xMidYMid meet">

<g transform="translate(0.000000,585.000000) scale(0.100000,-0.100000)"
fill="#000000" stroke="none">
<path d="M0 2925 l0 -2925 2925 0 2925 0 0 2925 0 2925 -2925 0 -2925 0 0
-2925z m2988 10 l2 -30 -16 23 c-18 24 -54 30 -54 8 0 -7 14 -19 31 -26 42
-18 64 -52 49 -79 -22 -43 -104 -40 -112 4 -7 35 1 38 26 8 15 -17 29 -24 39
-20 28 10 19 31 -21 52 -64 35 -53 99 17 93 32 -3 36 -6 39 -33z"/>
</g>
</svg>
